<svg width="19" height="18" viewBox="0 0 19 18" fill="none" xmlns="http://www.w3.org/2000/svg">
<path d="M6.64868 4.80595C6.66481 4.80651 6.68163 4.80624 6.69905 4.80596C6.83481 4.80379 7.00717 4.80102 7.17952 5.18745C7.26589 5.38029 7.40338 5.69451 7.53629 5.99829C7.71072 6.39695 7.87728 6.7776 7.91009 6.84228C7.9679 6.95623 8.00995 7.08505 7.93111 7.23369C7.92087 7.253 7.91125 7.2714 7.902 7.28906C7.8401 7.40738 7.7952 7.4932 7.6946 7.60528C7.65693 7.64725 7.61759 7.69289 7.57803 7.73879C7.49615 7.83379 7.41333 7.92988 7.34245 7.9967C7.22157 8.11065 7.10068 8.22956 7.23734 8.45252C7.37399 8.67547 7.84702 9.40875 8.5513 9.99835L6.64868 4.80595ZM6.64868 4.80595C6.51203 4.80099 6.35435 4.79604 6.19667 4.79604M6.64868 4.80595L6.19667 4.79604M6.19667 4.79604C6.039 4.79604 5.78146 4.85054 5.56597 5.07349M6.19667 4.79604L5.56597 5.07349M5.56597 5.07349C5.552 5.08794 5.53638 5.10372 5.51938 5.1209M5.56597 5.07349L5.51938 5.1209M5.51938 5.1209C5.27402 5.36878 4.7408 5.90746 4.7408 6.93146M5.51938 5.1209L4.7408 6.93146M4.7408 6.93146C4.7408 8.02642 5.58699 9.08671 5.70788 9.23534L4.7408 6.93146ZM1.82558 13.5171L1.88723 13.3053L1.77234 13.117C0.994274 11.8416 0.584094 10.3956 0.584094 8.91825C0.584094 4.30684 4.57876 0.5 9.54466 0.5C11.9488 0.5 14.2008 1.38519 15.8924 2.97985C17.5824 4.57291 18.5049 6.68666 18.5 8.92706V8.92816C18.5 13.5396 14.5053 17.3464 9.53941 17.3464H9.53415C8.03093 17.3464 6.55343 16.9885 5.24217 16.3164L5.07574 16.2311L4.89419 16.2759L0.722618 17.3065L1.82558 13.5171ZM1.7956 15.745L1.55367 16.5788L2.39622 16.3697L5.18145 15.6785L5.29665 15.7417C6.57704 16.4632 8.04862 16.8402 9.54466 16.8402C14.123 16.8402 17.9074 13.3197 17.9074 8.93311C17.9074 6.80945 17.033 4.81615 15.4483 3.32238C13.8656 1.83039 11.771 1.01115 9.54466 1.01115C4.96109 1.01115 1.17662 4.53171 1.17662 8.9232C1.17662 10.4202 1.62165 11.8842 2.46456 13.145L2.46483 13.1454L2.52426 13.2341L1.7956 15.745ZM11.3318 11.3871C11.45 11.2586 11.8629 10.8032 12.069 10.5324C12.0719 10.5334 12.0749 10.5344 12.0779 10.5354C12.1575 10.5629 12.4738 10.7019 12.8333 10.8649C13.1794 11.0219 13.5246 11.1822 13.6375 11.2366C13.701 11.2672 13.7589 11.2936 13.8073 11.3158L13.809 11.3166C13.823 11.3229 13.8358 11.3288 13.8477 11.3343C13.847 11.3438 13.8463 11.3537 13.8453 11.364C13.8323 11.5078 13.7937 11.7046 13.713 11.9214C13.6751 12.0177 13.5152 12.1925 13.2176 12.3721C12.9354 12.5425 12.6516 12.644 12.5136 12.6641C12.1461 12.7135 11.711 12.7311 11.239 12.5913C10.9035 12.4891 10.4788 12.3555 9.93756 12.1362C7.84623 11.2855 6.42235 9.36021 6.14265 8.98204C6.12431 8.95724 6.11089 8.93909 6.10252 8.92834L6.10262 8.92826L6.09578 8.91986C6.04435 8.85663 5.82451 8.58206 5.61914 8.20104C5.40974 7.81253 5.2408 7.3596 5.2408 6.93146C5.2408 6.11515 5.64698 5.70353 5.87812 5.4693C5.89491 5.45228 5.91077 5.4362 5.92549 5.42098C6.02598 5.317 6.1414 5.29604 6.19667 5.29604C6.34486 5.29604 6.49506 5.3007 6.63056 5.30562L6.63123 5.30564C6.64821 5.30623 6.66524 5.30632 6.6797 5.30624C6.6912 5.32549 6.70586 5.35296 6.72288 5.39112L6.7232 5.39183C6.80013 5.56359 6.92729 5.85406 7.05514 6.1461C7.23225 6.55066 7.41068 6.95824 7.45874 7.05747C7.45847 7.05799 7.45819 7.05851 7.45792 7.05903C7.39676 7.17517 7.37969 7.20759 7.32251 7.27129C7.2653 7.33503 7.217 7.39128 7.17432 7.44099C7.10624 7.52029 7.05243 7.58296 6.99948 7.63287L7.31228 7.96468L6.99948 7.63287C6.99673 7.63546 6.99357 7.63841 6.99003 7.64169C6.93671 7.69132 6.79946 7.81902 6.728 8.00075C6.63014 8.24961 6.67986 8.49978 6.81104 8.7138C6.95705 8.95203 7.46378 9.74 8.23035 10.3817C9.04993 11.0689 9.79183 11.3706 10.1089 11.4996C10.166 11.5228 10.2094 11.5404 10.2369 11.5537C10.3884 11.6267 10.5844 11.6963 10.8034 11.6712C11.0425 11.6437 11.2135 11.5159 11.3318 11.3871Z" fill="#CFCFCF" stroke="#CFCFCF"/>
</svg>
